<svg width="119" height="24" viewBox="0 0 119 24" fill="none" xmlns="http://www.w3.org/2000/svg">
<path d="M24.8428 17.0118C27.2083 18.9528 29.493 19.9232 31.6967 19.9232C32.869 19.9232 33.7991 19.6705 34.487 19.165C34.8165 18.9338 35.0833 18.6243 35.2633 18.2643C35.4432 17.9042 35.5308 17.5051 35.518 17.1028C35.5309 16.5758 35.3593 16.0609 35.0328 15.647C34.7092 15.2429 34.0925 14.8082 33.1828 14.343L29.4829 12.5841C27.8452 11.8159 26.6978 10.9869 26.0407 10.0971C25.3723 9.17228 25.026 8.05352 25.0552 6.91277C25.0315 6.00947 25.2162 5.11286 25.5949 4.29242C25.9735 3.47197 26.536 2.74973 27.2387 2.18166C27.9251 1.62566 28.713 1.20851 29.5587 0.953462C30.4577 0.677586 31.3933 0.539548 32.3337 0.544052C32.893 0.545329 33.4512 0.596064 34.0016 0.695661C34.5545 0.793431 35.0975 0.940614 35.624 1.13544C36.1297 1.3229 36.617 1.55641 37.08 1.83302C37.5162 2.0925 37.9274 2.39199 38.3082 2.72762V6.97338C37.4406 6.08869 36.4308 5.35574 35.3208 4.805C34.3474 4.31077 33.2736 4.04621 32.1819 4.03162C31.2115 4.03162 30.4281 4.25909 29.8317 4.71401C29.5423 4.92883 29.3096 5.21094 29.1537 5.53593C28.9978 5.86092 28.9235 6.21899 28.9371 6.57917C28.9297 7.0632 29.0904 7.53481 29.3919 7.91355C29.6951 8.29794 30.241 8.672 31.0295 9.03572L34.487 10.6431C35.2873 11.0069 36.0579 11.4328 36.7918 11.9169C37.3638 12.2919 37.8751 12.7521 38.3082 13.2815C38.6831 13.7499 38.966 14.2849 39.1422 14.8585C39.32 15.4692 39.4069 16.1028 39.4 16.7388C39.4228 17.6989 39.2192 18.6509 38.8056 19.5177C38.3919 20.3844 37.78 21.1416 37.0192 21.7277C36.2751 22.2973 35.432 22.724 34.5324 22.9863C33.583 23.2706 32.5969 23.4136 31.6059 23.4109C30.3476 23.4134 29.0975 23.2084 27.9059 22.8043C26.8009 22.4466 25.765 21.903 24.8428 21.1969L24.8428 17.0118Z" fill="white"/>
<path d="M41.1751 11.9776C41.1658 10.4461 41.4702 8.92885 42.0697 7.51947C43.2192 4.77786 45.3964 2.59522 48.1352 1.43878C49.539 0.838612 51.0514 0.534087 52.5781 0.544189C53.597 0.540089 54.6119 0.672673 55.5955 0.938396C56.5482 1.19828 57.4613 1.58599 58.31 2.09094V6.8219C57.6307 6.06549 56.7915 5.46982 55.8533 5.07812C54.8452 4.65632 53.7617 4.44474 52.6689 4.45635C51.6596 4.44823 50.659 4.64422 49.7273 5.03255C48.8441 5.3987 48.0444 5.94043 47.3768 6.62488C46.711 7.31577 46.1857 8.12944 45.8302 9.02066C45.4522 9.96031 45.2616 10.9648 45.2691 11.9776C45.2606 12.9856 45.4513 13.9853 45.8302 14.9193C46.1899 15.8075 46.7206 16.6164 47.3922 17.2999C48.0652 17.9815 48.8631 18.5272 49.7424 18.9073C50.6659 19.3065 51.6628 19.508 52.6689 19.4987C53.7616 19.5106 54.8453 19.2991 55.8533 18.8771C56.7917 18.4857 57.631 17.8899 58.31 17.1331V21.8643C57.4616 22.3696 56.5484 22.7573 55.5955 23.0167C54.6118 23.2824 53.597 23.4151 52.5781 23.411C51.0498 23.4211 49.5364 23.1111 48.1352 22.5011C46.7835 21.9172 45.554 21.0839 44.511 20.0447C43.473 19.0038 42.6443 17.7735 42.0697 16.4205C41.4693 15.0168 41.1648 13.5043 41.1751 11.9776Z" fill="white"/>
<path d="M71.772 0.544345C73.3039 0.531339 74.8219 0.835944 76.2303 1.43895C77.5739 2.0144 78.794 2.84329 79.824 3.88031C80.8536 4.92452 81.6676 6.16112 82.2197 7.51963C82.7998 8.9339 83.0936 10.4492 83.0842 11.9778C83.0944 13.503 82.7952 15.0144 82.2046 16.4207C81.6421 17.7693 80.8291 18.999 79.8087 20.0448C78.7804 21.0877 77.56 21.9218 76.2149 22.5012C74.8107 23.1016 73.2993 23.4112 71.772 23.4112C70.2448 23.4112 68.7334 23.1016 67.3291 22.5012C65.9838 21.9221 64.7635 21.0879 63.7353 20.0448C62.7146 18.9993 61.9015 17.7695 61.3394 16.4207C60.1668 13.5695 60.1668 10.3708 61.3394 7.51963C61.8988 6.16495 62.7121 4.92968 63.7353 3.88031C64.7831 2.81416 66.0344 1.96947 67.415 1.3964C68.7956 0.823328 70.2772 0.533574 71.772 0.544345ZM71.772 19.6202C72.7817 19.6336 73.7815 19.4211 74.6986 18.9985C75.5594 18.5979 76.3324 18.031 76.9733 17.3305C77.6166 16.6223 78.1207 15.7992 78.4593 14.9043C78.8156 13.97 78.9955 12.9777 78.9899 11.9778C78.9946 10.973 78.8147 9.97586 78.4593 9.03601C78.1231 8.13541 77.6188 7.30692 76.9733 6.59465C76.3343 5.89585 75.5606 5.33363 74.6986 4.94186C73.7748 4.54173 72.7787 4.33528 71.772 4.33528C70.7653 4.33528 69.7692 4.54173 68.8454 4.94186C67.9835 5.3336 67.2097 5.89583 66.5709 6.59465C65.925 7.30672 65.4206 8.13526 65.0847 9.03601C64.7292 9.97582 64.5493 10.973 64.5541 11.9778C64.5484 12.9777 64.7283 13.97 65.0847 14.9043C65.4231 15.7994 65.9273 16.6225 66.5709 17.3305C67.2152 18.0337 67.9937 18.6008 68.8606 18.9985C69.7733 19.4181 70.7676 19.6304 71.772 19.6202Z" fill="white"/>
<path d="M85.9624 23.047V0.908133H92.2096C93.38 0.893457 94.5459 1.05707 95.6671 1.39334C96.6245 1.67849 97.5195 2.14149 98.3055 2.7581C99.0262 3.33536 99.6025 4.07257 99.9888 4.91129C100.393 5.80664 100.595 6.77991 100.58 7.76205C100.618 9.09395 100.224 10.4024 99.4579 11.4924C98.6425 12.5732 97.5231 13.3863 96.2431 13.8275L103.127 23.047H98.3662L92.0279 14.4947H90.0564V23.047H85.9624ZM90.0564 11.2194H92.2096C93.5035 11.2194 94.5296 10.9161 95.2881 10.3096C96.0461 9.70301 96.4251 8.85383 96.4251 7.76205C96.4251 6.67026 96.0461 5.81602 95.2881 5.19931C94.5297 4.58291 93.5035 4.27463 92.2096 4.27448H90.0564V11.2194Z" fill="white"/>
<path d="M104.896 0.908203H118.543V4.30478H108.899V10.0367H117.785V13.4636H108.899V19.6503H118.604V23.0471H104.896V0.908203Z" fill="white"/>
<path d="M11.9709 0.588702C13.8827 0.564957 15.7647 1.06301 17.4146 2.02927C19.049 2.99683 20.3946 4.38431 21.3117 6.0476L17.8847 8.10979C17.3025 7.00575 16.4395 6.07474 15.3828 5.41063C14.3608 4.76937 13.1773 4.43275 11.9709 4.44023C10.9728 4.42905 9.98437 4.63607 9.07469 5.04681C8.21268 5.4385 7.43894 6.00073 6.80014 6.69959C6.15662 7.40768 5.65242 8.23078 5.31399 9.12575C4.95943 10.05 4.77951 11.0321 4.78337 12.0221C4.78057 13.0182 4.96574 14.006 5.32917 14.9334C5.67793 15.8392 6.19213 16.6723 6.84554 17.39C7.49259 18.098 8.27002 18.6746 9.13529 19.0883C10.0396 19.5185 11.0302 19.7363 12.0315 19.7251C13.6692 19.7251 15.0542 19.2753 16.1864 18.3756C17.3311 17.4557 18.115 16.1618 18.4003 14.7212H12.2742V11.3245H22.6461C22.7784 12.9251 22.6296 14.5366 22.2063 16.0858C21.8097 17.5086 21.0999 18.8246 20.1289 19.9375C19.1636 21.0862 17.9363 21.9859 16.5503 22.5607C15.0996 23.164 13.542 23.4684 11.9709 23.4555C10.4474 23.4665 8.93874 23.1565 7.54312 22.5455C6.20385 21.9637 4.98894 21.1297 3.96457 20.0891C2.94381 19.0436 2.13078 17.8138 1.56864 16.465C0.97791 15.0588 0.678735 13.5473 0.689232 12.0221C0.669027 9.00377 1.84057 6.09938 3.94938 3.93985C4.97583 2.89471 6.19662 2.06023 7.54312 1.4833C8.94133 0.882243 10.449 0.577631 11.9709 0.588702Z" fill="white"/>
</svg>
